<mxfile host="app.diagrams.net" modified="2023-10-07T19:26:12.884Z" agent="Mozilla/5.0 (Windows NT 10.0; Win64; x64) AppleWebKit/537.36 (KHTML, like Gecko) Chrome/117.0.0.0 Safari/537.36 Edg/117.0.2045.47" etag="s2vHnJsQr5yZ_N733jqf" version="22.0.0" type="device">
  <diagram name="Page-1" id="c2Fs3og78XsbvDHN5vIx">
    <mxGraphModel dx="1169" dy="1111" grid="1" gridSize="10" guides="1" tooltips="1" connect="1" arrows="1" fold="1" page="1" pageScale="1" pageWidth="850" pageHeight="1100" math="0" shadow="0">
      <root>
        <mxCell id="0" />
        <mxCell id="1" parent="0" />
        <mxCell id="Aqyp9pPTbP0Ltka19C_j-26" style="edgeStyle=orthogonalEdgeStyle;rounded=0;orthogonalLoop=1;jettySize=auto;html=1;entryX=0.5;entryY=0;entryDx=0;entryDy=0;endArrow=none;endFill=0;shape=link;fillColor=#1ba1e2;strokeColor=#006EAF;" edge="1" parent="1" source="Aqyp9pPTbP0Ltka19C_j-1" target="Aqyp9pPTbP0Ltka19C_j-21">
          <mxGeometry relative="1" as="geometry" />
        </mxCell>
        <mxCell id="Aqyp9pPTbP0Ltka19C_j-27" style="edgeStyle=orthogonalEdgeStyle;rounded=0;orthogonalLoop=1;jettySize=auto;html=1;entryX=0.5;entryY=0;entryDx=0;entryDy=0;endArrow=none;endFill=0;shape=link;fillColor=#008a00;strokeColor=#005700;" edge="1" parent="1" source="Aqyp9pPTbP0Ltka19C_j-1" target="Aqyp9pPTbP0Ltka19C_j-22">
          <mxGeometry relative="1" as="geometry" />
        </mxCell>
        <mxCell id="Aqyp9pPTbP0Ltka19C_j-1" value="Server" style="image;aspect=fixed;perimeter=ellipsePerimeter;html=1;align=center;shadow=0;dashed=0;spacingTop=3;image=img/lib/active_directory/web_server.svg;" vertex="1" parent="1">
          <mxGeometry x="430" y="480" width="40" height="50" as="geometry" />
        </mxCell>
        <mxCell id="Aqyp9pPTbP0Ltka19C_j-7" value="users" style="swimlane;fontStyle=0;childLayout=stackLayout;horizontal=1;startSize=26;horizontalStack=0;resizeParent=1;resizeParentMax=0;resizeLast=0;collapsible=1;marginBottom=0;align=center;fontSize=14;" vertex="1" parent="1">
          <mxGeometry x="280" y="170" width="130" height="116" as="geometry" />
        </mxCell>
        <mxCell id="Aqyp9pPTbP0Ltka19C_j-8" value="username" style="text;strokeColor=none;fillColor=none;spacingLeft=4;spacingRight=4;overflow=hidden;rotatable=0;points=[[0,0.5],[1,0.5]];portConstraint=eastwest;fontSize=12;whiteSpace=wrap;html=1;" vertex="1" parent="Aqyp9pPTbP0Ltka19C_j-7">
          <mxGeometry y="26" width="130" height="30" as="geometry" />
        </mxCell>
        <mxCell id="Aqyp9pPTbP0Ltka19C_j-9" value="password_hash" style="text;strokeColor=none;fillColor=none;spacingLeft=4;spacingRight=4;overflow=hidden;rotatable=0;points=[[0,0.5],[1,0.5]];portConstraint=eastwest;fontSize=12;whiteSpace=wrap;html=1;" vertex="1" parent="Aqyp9pPTbP0Ltka19C_j-7">
          <mxGeometry y="56" width="130" height="30" as="geometry" />
        </mxCell>
        <mxCell id="Aqyp9pPTbP0Ltka19C_j-10" value="user_id" style="text;strokeColor=none;fillColor=none;spacingLeft=4;spacingRight=4;overflow=hidden;rotatable=0;points=[[0,0.5],[1,0.5]];portConstraint=eastwest;fontSize=12;whiteSpace=wrap;html=1;" vertex="1" parent="Aqyp9pPTbP0Ltka19C_j-7">
          <mxGeometry y="86" width="130" height="30" as="geometry" />
        </mxCell>
        <mxCell id="Aqyp9pPTbP0Ltka19C_j-11" value="api_users" style="swimlane;fontStyle=0;childLayout=stackLayout;horizontal=1;startSize=26;horizontalStack=0;resizeParent=1;resizeParentMax=0;resizeLast=0;collapsible=1;marginBottom=0;align=center;fontSize=14;" vertex="1" parent="1">
          <mxGeometry x="450" y="170" width="190" height="160" as="geometry" />
        </mxCell>
        <mxCell id="Aqyp9pPTbP0Ltka19C_j-12" value="username" style="text;strokeColor=none;fillColor=none;spacingLeft=4;spacingRight=4;overflow=hidden;rotatable=0;points=[[0,0.5],[1,0.5]];portConstraint=eastwest;fontSize=12;whiteSpace=wrap;html=1;" vertex="1" parent="Aqyp9pPTbP0Ltka19C_j-11">
          <mxGeometry y="26" width="190" height="30" as="geometry" />
        </mxCell>
        <mxCell id="Aqyp9pPTbP0Ltka19C_j-13" value="password_hash" style="text;strokeColor=none;fillColor=none;spacingLeft=4;spacingRight=4;overflow=hidden;rotatable=0;points=[[0,0.5],[1,0.5]];portConstraint=eastwest;fontSize=12;whiteSpace=wrap;html=1;" vertex="1" parent="Aqyp9pPTbP0Ltka19C_j-11">
          <mxGeometry y="56" width="190" height="30" as="geometry" />
        </mxCell>
        <mxCell id="Aqyp9pPTbP0Ltka19C_j-14" value="user_id&lt;br&gt;&lt;br&gt;roles" style="text;strokeColor=none;fillColor=none;spacingLeft=4;spacingRight=4;overflow=hidden;rotatable=0;points=[[0,0.5],[1,0.5]];portConstraint=eastwest;fontSize=12;whiteSpace=wrap;html=1;" vertex="1" parent="Aqyp9pPTbP0Ltka19C_j-11">
          <mxGeometry y="86" width="190" height="74" as="geometry" />
        </mxCell>
        <mxCell id="Aqyp9pPTbP0Ltka19C_j-25" style="rounded=0;orthogonalLoop=1;jettySize=auto;html=1;entryX=0.5;entryY=1;entryDx=0;entryDy=0;shape=link;fillColor=#008a00;strokeColor=#005700;" edge="1" parent="1" source="Aqyp9pPTbP0Ltka19C_j-15" target="Aqyp9pPTbP0Ltka19C_j-22">
          <mxGeometry relative="1" as="geometry" />
        </mxCell>
        <mxCell id="Aqyp9pPTbP0Ltka19C_j-15" value="RedTeam01" style="shape=image;html=1;verticalAlign=top;verticalLabelPosition=bottom;labelBackgroundColor=#ffffff;imageAspect=0;aspect=fixed;image=https://cdn0.iconfinder.com/data/icons/kameleon-free-pack/110/Hacker-128.png" vertex="1" parent="1">
          <mxGeometry x="650" y="820" width="128" height="128" as="geometry" />
        </mxCell>
        <mxCell id="Aqyp9pPTbP0Ltka19C_j-24" style="rounded=0;orthogonalLoop=1;jettySize=auto;html=1;exitX=0.5;exitY=0.25;exitDx=0;exitDy=0;exitPerimeter=0;entryX=0.5;entryY=1;entryDx=0;entryDy=0;fillColor=#1ba1e2;strokeColor=#006EAF;shape=link;" edge="1" parent="1" source="Aqyp9pPTbP0Ltka19C_j-16" target="Aqyp9pPTbP0Ltka19C_j-21">
          <mxGeometry relative="1" as="geometry" />
        </mxCell>
        <mxCell id="Aqyp9pPTbP0Ltka19C_j-16" value="API External Plugin" style="sketch=0;aspect=fixed;pointerEvents=1;shadow=0;dashed=0;html=1;strokeColor=none;labelPosition=center;verticalLabelPosition=bottom;verticalAlign=top;align=center;fillColor=#00188D;shape=mxgraph.mscae.enterprise.plug_and_play" vertex="1" parent="1">
          <mxGeometry x="110" y="810" width="40" height="50" as="geometry" />
        </mxCell>
        <mxCell id="Aqyp9pPTbP0Ltka19C_j-21" value="API Endpoint" style="rounded=0;whiteSpace=wrap;html=1;" vertex="1" parent="1">
          <mxGeometry x="280" y="600" width="120" height="20" as="geometry" />
        </mxCell>
        <mxCell id="Aqyp9pPTbP0Ltka19C_j-22" value="Webserver Endpoint" style="rounded=0;whiteSpace=wrap;html=1;" vertex="1" parent="1">
          <mxGeometry x="490" y="600" width="120" height="20" as="geometry" />
        </mxCell>
        <mxCell id="Aqyp9pPTbP0Ltka19C_j-28" style="rounded=0;orthogonalLoop=1;jettySize=auto;html=1;entryX=0.521;entryY=0.967;entryDx=0;entryDy=0;entryPerimeter=0;shape=link;fillColor=#1ba1e2;strokeColor=#006EAF;" edge="1" parent="1" source="Aqyp9pPTbP0Ltka19C_j-1" target="Aqyp9pPTbP0Ltka19C_j-14">
          <mxGeometry relative="1" as="geometry" />
        </mxCell>
        <mxCell id="Aqyp9pPTbP0Ltka19C_j-29" style="rounded=0;orthogonalLoop=1;jettySize=auto;html=1;exitX=0.25;exitY=0;exitDx=0;exitDy=0;entryX=0.5;entryY=1.067;entryDx=0;entryDy=0;entryPerimeter=0;shape=link;fillColor=#008a00;strokeColor=#005700;" edge="1" parent="1" source="Aqyp9pPTbP0Ltka19C_j-1" target="Aqyp9pPTbP0Ltka19C_j-10">
          <mxGeometry relative="1" as="geometry" />
        </mxCell>
        <mxCell id="Aqyp9pPTbP0Ltka19C_j-30" value="Tables of &#39;users.db&#39;" style="rounded=0;whiteSpace=wrap;html=1;" vertex="1" parent="1">
          <mxGeometry x="285" y="80" width="355" height="40" as="geometry" />
        </mxCell>
        <mxCell id="Aqyp9pPTbP0Ltka19C_j-31" value="JWT Req&#39;d" style="text;html=1;strokeColor=none;fillColor=none;align=center;verticalAlign=middle;whiteSpace=wrap;rounded=0;rotation=-45;" vertex="1" parent="1">
          <mxGeometry x="160" y="700" width="100" height="30" as="geometry" />
        </mxCell>
        <mxCell id="Aqyp9pPTbP0Ltka19C_j-32" value="SessID req&#39;d" style="text;html=1;strokeColor=none;fillColor=none;align=center;verticalAlign=middle;whiteSpace=wrap;rounded=0;rotation=60;" vertex="1" parent="1">
          <mxGeometry x="570" y="680" width="100" height="30" as="geometry" />
        </mxCell>
      </root>
    </mxGraphModel>
  </diagram>
</mxfile>
